<?xml version="1.0" encoding="UTF-8"?>
<svg width="242px" height="265px" viewBox="0 0 242 265" version="1.1" xmlns="http://www.w3.org/2000/svg" xmlns:xlink="http://www.w3.org/1999/xlink">
    <!-- Generator: Sketch 58 (84663) - https://sketch.com -->
    <title>icon2</title>
    <desc>Created with Sketch.</desc>
    <g id="Page-1" stroke="none" stroke-width="1" fill="none" fill-rule="evenodd">
        <g id="icon2" transform="translate(-4.000000, 9.000000)">
            <path d="M136.891514,6.78318171 L221.144689,54.8430521 C228.631388,59.1136302 233.253175,67.0708429 233.253175,75.6899201 L233.253175,171.31008 C233.253175,179.929157 228.631388,187.88637 221.144689,192.156948 L136.891514,240.216818 C129.521224,244.420994 120.478776,244.420994 113.108486,240.216818 L28.855311,192.156948 C21.3686125,187.88637 16.7468245,179.929157 16.7468245,171.31008 L16.7468245,75.6899201 C16.7468245,67.0708429 21.3686125,59.1136302 28.855311,54.8430521 L113.108486,6.78318171 C120.478776,2.57900573 129.521224,2.57900573 136.891514,6.78318171 Z" id="ффффф" stroke="#F9F4F0" stroke-width="24" fill="#FFFFFF" stroke-linejoin="round"></path>
            <g id="006-honeycomb-2" transform="translate(65.000000, 64.000000)" fill-rule="nonzero">
                <polygon id="Path" fill="#F6BB05" points="29 30.7258816 29 27 17.4453511 27 10 39.081171 13.280548 41 19.6138813 30.7258816"></polygon>
                <polygon id="Path" fill="#F6BB05" points="64.717538 60 68 58.081171 60.5546489 46 49 46 49 49.7258816 58.3861187 49.7258816"></polygon>
                <path d="M76.1730424,57.8461538 L64.6700158,38.4230769 L45.4983047,38.4230769 L33.9952781,19 L12.6533293,19 L0,40.3653846 L11.5030266,59.7884615 L0,79.2115385 L12.6533293,100.576923 L31.8250404,100.576923 L43.328067,120 L64.671933,120 L76.1749596,100.576923 L95.3466707,100.576923 L108,79.2115385 L95.3466707,57.8461538 L76.1730424,57.8461538 Z M45.5002219,42.3076923 L62.4997781,42.3076923 L72.8525021,59.7884615 L67.6761401,68.5288462 L62.4997781,77.2692308 L45.5002219,77.2692308 L40.3238599,68.5288462 L35.1474979,59.7884615 L40.3238599,51.0480769 L45.5002219,42.3076923 Z M4.47084302,40.3653846 L14.823567,22.8846154 L31.8231232,22.8846154 L42.1758472,40.3653846 L36.9994852,49.1057692 L31.8231232,57.8461538 L14.823567,57.8461538 L4.47084302,40.3653846 Z M31.8231232,96.6923077 L14.823567,96.6923077 L4.47084302,79.2115385 L14.823567,61.7307692 L31.8231232,61.7307692 L36.9994852,70.4711538 L42.1758472,79.2115385 L36.9994852,87.9519231 L31.8231232,96.6923077 Z M62.4997781,116.115385 L45.5002219,116.115385 L35.1474979,98.6346154 L40.3238599,89.8942308 L45.5002219,81.1538462 L62.4997781,81.1538462 L67.6761401,89.8942308 L72.8525021,98.6346154 L62.4997781,116.115385 Z M93.1745158,96.6923077 L76.1749596,96.6923077 L70.9985976,87.9519231 L65.8222356,79.2115385 L70.9985976,70.4711538 L76.1749596,61.7307692 L93.1745158,61.7307692 L103.52724,79.2115385 L93.1745158,96.6923077 Z" id="Shape" fill="#EB6D2F"></path>
                <polygon id="Path" fill="#F6BB05" points="75.4414818 79.5334813 81.7094562 68.981502 78.4431007 67 71 79.5334813 78.9973336 93 91 93 91 89.1524232 81.1552233 89.1524232"></polygon>
                <polygon id="Path" fill="#F6BB05" points="13.280548 79 10 80.918829 17.4453511 93 29 93 29 89.2741184 19.6138813 89.2741184"></polygon>
                <rect id="Rectangle" fill="#EB6D2F" x="56" y="85" width="4" height="4"></rect>
                <polygon id="Path" fill="#F6BB05" points="39 99.4665187 46.8147977 112 50.2442701 110.018498 43.6632826 99.4665187 49.6623596 89.8475768 52 89.8475768 52 86 47.3967082 86"></polygon>
                <path d="M113.609615,24.5631001 C109.730769,20.8438212 105.213462,18.7356497 101.384615,18.515162 C101.825,17.5558472 102.080769,16.4998273 102.080769,15.3819161 C102.080769,13.7243904 101.530769,12.1964495 100.613462,10.9373489 L101.025,10.146301 C102.628846,7.07301236 105.392308,4.77916695 108.807692,3.68639912 L107.644231,0 C103.257692,1.40415832 99.6961538,4.36913725 97.6192308,8.34951993 L97.5692308,8.44429094 C96.5192308,7.95109484 95.3538462,7.64744077 94.1076923,7.64744077 C92.8615385,7.64744077 91.6961538,7.95109484 90.6461538,8.44622505 L90.5961538,8.35145403 C88.5211538,4.36913725 84.9615385,1.40415832 80.5730769,0.00193410237 L79.4096154,3.68833322 C82.825,4.78110106 85.5884615,7.07494647 87.1903846,10.1482351 L87.6038462,10.939283 C86.6846154,12.1983836 86.1365385,13.7282586 86.1365385,15.3838502 C86.1365385,16.5868619 86.4442308,17.7105754 86.95,18.7259791 C83.5192308,19.3700352 79.7211538,21.3698971 76.3903846,24.5631001 C72.3884615,28.3984251 70,33.0654141 70,37.0399945 C70,39.2255302 70.7307692,41.0803343 72.1134615,42.4051944 C73.5076923,43.7397251 75.4115385,44.379913 77.575,44.379913 C79.2115385,44.379913 80.9980769,43.9930925 82.8192308,43.285211 C84.4942308,50.8823651 88.9230769,56 94.1076923,56 C99.4596154,56 104.005769,50.4955447 105.548077,42.5618567 C107.925,43.7435933 110.3,44.379913 112.425,44.379913 C114.588462,44.379913 116.492308,43.7416592 117.886538,42.4051944 C119.269231,41.0803343 120,39.2255302 120,37.0399945 C120,33.0654141 117.611538,28.3984251 113.609615,24.5631001 Z M94.1096154,11.5156455 C96.3846154,11.5156455 98.2365385,13.2524694 98.2365385,15.3838502 C98.2365385,17.5152311 96.3846154,19.252055 94.1096154,19.252055 C91.8346154,19.252055 89.9826923,17.5152311 89.9826923,15.3838502 C89.9826923,13.2524694 91.8346154,11.5156455 94.1096154,11.5156455 Z M96.5461538,34.8428542 C95.5365385,34.7732265 94.525,34.7500173 93.5057692,34.7674242 C94.0692308,33.9802445 94.5730769,33.1833943 95,32.3788078 C95.4403846,33.2085377 95.9615385,34.0324653 96.5461538,34.8428542 Z M74.7673077,39.6065483 C74.1557692,39.0205153 73.8461538,38.1559715 73.8461538,37.0399945 C73.8461538,34.1446432 75.8384615,30.436969 79.0461538,27.3617462 C84.1480769,22.4704013 90.0096154,21.2751261 92.0788462,23.2595151 C92.6884615,23.8455481 93,24.7081578 93,25.8241348 C93,28.717552 91.0076923,32.4271603 87.8,35.5043172 C82.6961538,40.3995303 76.8365385,41.5948056 74.7673077,39.6065483 Z M94.1076923,52.1317953 C91.8230769,52.1317953 89.6288462,50.1164606 88.0942308,46.9387304 C91.8769231,46.1689577 96.3269231,46.1631553 100.111538,46.9348622 C98.5807692,50.1009878 96.4,52.1317953 94.1076923,52.1317953 Z M101.446154,43.2774746 C96.8480769,42.2407957 91.3673077,42.2349934 86.7692308,43.26587 C86.6173077,42.6875734 86.4788462,42.0957381 86.3692308,41.4806935 C87.5307692,40.753471 88.6711538,39.8947296 89.7730769,38.9083374 C93.3480769,38.3996684 97.3538462,38.5543966 100.709615,39.335774 C101.140385,39.7032534 101.576923,40.0475237 102.019231,40.3763211 C101.878846,41.3820543 101.688462,42.3549078 101.446154,43.2774746 Z M115.230769,39.6065483 C113.169231,41.5928715 107.303846,40.3975962 102.2,35.5043172 C98.9923077,32.4271603 97,28.717552 97,25.8241348 C97,24.7081578 97.3096154,23.8455481 97.9211538,23.2595151 C98.55,22.6560752 99.5326923,22.3446847 100.738462,22.3446847 C103.490385,22.3446847 107.405769,23.9596602 110.953846,27.3617462 C114.161538,30.436969 116.153846,34.1446432 116.153846,37.0399945 C116.153846,38.1559715 115.844231,39.0205153 115.230769,39.6065483 Z" id="Shape" fill="#EB6D2F"></path>
            </g>
        </g>
    </g>
</svg>