<?xml version="1.0" encoding="UTF-8"?>
<svg width="624px" height="166px" viewBox="0 0 624 166" version="1.1" xmlns="http://www.w3.org/2000/svg" xmlns:xlink="http://www.w3.org/1999/xlink">
    <!-- Generator: Sketch 58 (84663) - https://sketch.com -->
    <title>Group 33 Copy 3</title>
    <desc>Created with Sketch.</desc>
    <defs>
        <polygon id="path-1" points="0.394888882 0.43475952 56.6812703 0.43475952 56.6812703 49.8599906 0.394888882 49.8599906"></polygon>
        <polygon id="path-3" points="0.588248684 0.151337931 59.6724474 0.151337931 59.6724474 45.3702 0.588248684 45.3702"></polygon>
    </defs>
    <g id="Page-1" stroke="none" stroke-width="1" fill="none" fill-rule="evenodd">
        <g id="Group-33-Copy-3">
            <g id="Group">
                <path d="M97.5962901,39.784657 C96.828469,39.3411841 96.5671854,38.3594379 97.0096042,37.5897874 L104.546408,25.8242644 L91.5239053,3.21357198 L65.477297,3.21357198 L52.4531913,25.8242644 L58.989995,37.5897874 C59.4324139,38.3594379 59.1711303,39.3411841 58.4033092,39.784657 C57.637091,40.22813 56.6560753,39.9646171 56.2136565,39.1965734 L49.2151983,26.6276574 C48.9282672,26.1311605 48.9282672,25.5189751 49.2151983,25.0208714 L63.1626128,0.803392994 C63.4495439,0.305289338 63.978523,0 64.5507821,0 L92.4488171,0 C93.0210763,0 93.5500554,0.305289338 93.8369864,0.803392994 L107.786004,25.0208714 C108.071332,25.5189751 108.071332,26.1311605 107.786004,26.6276574 L99.7859428,39.1965734 C99.4893939,39.7123517 98.9507971,40 98.3961705,40 C98.1252691,40 97.8495588,39.9308746 97.5962901,39.784657 Z" id="Fill-1" fill="#F7BD02"></path>
                <path d="M63.6343626,27 C63.357945,27 63.0766206,26.9313579 62.8181947,26.786092 C62.0347389,26.3455053 61.768135,25.3685523 62.2195625,24.6055073 L67.6219724,15.4745086 C69.2543082,12.7144567 72.2965372,11 75.5628444,11 L86.364393,11 C87.2672481,11 88,11.7135588 88,12.5963284 C88,13.4775017 87.2672481,14.1926569 86.364393,14.1926569 L75.5628444,14.1926569 C73.462725,14.1926569 71.5049034,15.2941235 70.4548438,17.0708371 L65.0524339,26.2018358 C64.7498466,26.7142572 64.2002826,27 63.6343626,27" id="Fill-3" fill="#EB6D2F"></path>
                <path d="M92.4485002,166 L64.5514998,166 C63.9776259,166 63.4486361,165.69247 63.1616992,165.19071 L49.2140004,140.795484 C48.9286665,140.293725 48.9286665,139.677046 49.2140004,139.176905 L57.23541,125.147061 C57.6778379,124.37338 58.6540646,124.106314 59.4251073,124.554661 C60.1913411,125.001388 60.454233,125.991959 60.0118051,126.76564 L52.4536624,139.986195 L65.4764305,162.762842 L91.5235695,162.762842 L104.546338,139.986195 L96.7942319,126.428975 C96.3518041,125.653676 96.614696,124.664724 97.3809297,124.217996 C98.1471635,123.76965 99.1281992,124.035097 99.5706271,124.810396 L107.786,139.176905 C108.071333,139.677046 108.071333,140.293725 107.786,140.795484 L93.8366978,165.19071 C93.5497609,165.69247 93.0207711,166 92.4485002,166" id="Fill-5" fill="#F7BD02"></path>
                <path d="M92.6766642,36 C92.3930922,36 92.1028084,35.9328205 91.8393717,35.7906498 C91.0356381,35.359451 90.7621337,34.4033145 91.2252454,33.6565281 L94.8680549,27.7822253 C95.3311665,27.0338766 96.3580663,26.777657 97.160122,27.2104181 C97.9638556,27.6416169 98.23736,28.5977535 97.7759263,29.3445398 L94.1314389,35.2188427 C93.8210198,35.7203457 93.2572317,36 92.6766642,36" id="Fill-7" fill="#EB6D2F"></path>
                <path d="M14.6343626,56 C14.357945,56 14.0766206,55.9313579 13.8181947,55.786092 C13.0347389,55.3455053 12.768135,54.3701487 13.2195625,53.6055073 L18.6219724,44.4729123 C20.2543082,41.7128604 23.2965372,40 26.5628444,40 L37.364393,40 C38.2672481,40 39,40.7135588 39,41.5963284 C39,42.4775017 38.2672481,43.1926569 37.364393,43.1926569 L26.5628444,43.1926569 C24.462725,43.1926569 22.5049034,44.2941235 21.4548438,46.0692407 L16.0524339,55.2018358 C15.7498466,55.7142572 15.2002826,56 14.6343626,56" id="Fill-9" fill="#EB6D2F"></path>
                <g id="Group-13" transform="translate(101.000000, 87.000000)">
                    <mask id="mask-2" fill="white">
                        <use xlink:href="#path-1"></use>
                    </mask>
                    <g id="Clip-12"></g>
                    <path d="M41.2121081,49.8599906 L13.4613784,49.8599906 C12.8905135,49.8599906 12.3642973,49.5571781 12.0788649,49.0631156 L0.608945946,29.2065844 C0.168837838,28.4431781 0.428756757,27.4693969 1.19256757,27.0279281 C1.95318919,26.5880531 2.92908108,26.8494281 3.37078378,27.6128344 L14.3814595,46.6724906 L40.292027,46.6724906 L53.2465135,24.2452406 L40.8740541,2.82683438 C40.4339459,2.06342813 40.6954595,1.08964688 41.4576757,0.649771875 C42.2214865,0.206709375 43.1957838,0.471271875 43.6374865,1.23308438 L56.4691892,23.4483656 C56.753027,23.9424281 56.753027,24.5496469 56.4691892,25.0421156 L42.593027,49.0631156 C42.3075946,49.5571781 41.7813784,49.8599906 41.2121081,49.8599906" id="Fill-11" fill="#F7BD02" mask="url(#mask-2)"></path>
                </g>
                <path d="M120.818195,127.786071 C120.034739,127.34544 119.768135,126.36839 120.219563,125.605268 L125.621972,116.473359 C127.254308,113.713031 130.296537,112 133.561209,112 L144.364393,112 C145.267248,112 146,112.71363 146,113.596488 C146,114.477749 145.267248,115.192975 144.364393,115.192975 L133.561209,115.192975 C131.461089,115.192975 129.504903,116.294552 128.454844,118.069846 L123.052434,127.201756 C122.749847,127.714229 122.200283,128 121.634363,128 C121.357945,128 121.074985,127.931351 120.818195,127.786071 Z" id="Fill-16" fill="#EB6D2F" transform="translate(133.000000, 120.000000) rotate(-179.000000) translate(-133.000000, -120.000000) "></path>
                <path d="M13.8181947,112.786092 C13.0347389,112.345505 12.768135,111.368552 13.2195625,110.605507 L18.6219724,101.474509 C20.2543082,98.7144567 23.2965372,97 26.5628444,97 L29.364393,97 C30.2672481,97 31,97.7135588 31,98.5963284 C31,99.4775017 30.2672481,100.192657 29.364393,100.192657 L26.5628444,100.192657 C24.462725,100.192657 22.5049034,101.294124 21.4548438,103.070837 L16.0524339,112.201836 C15.7498466,112.714257 15.2002826,113 14.6343626,113 C14.357945,113 14.0766206,112.931358 13.8181947,112.786092 Z" id="Fill-18" fill="#EB6D2F"></path>
                <g id="Group-22" transform="translate(98.000000, 28.000000)">
                    <mask id="mask-4" fill="white">
                        <use xlink:href="#path-3"></use>
                    </mask>
                    <g id="Clip-21"></g>
                    <path d="M48.0305974,45.3702 C47.7593079,45.3702 47.4832026,45.3005103 47.2295711,45.1530276 C46.46065,44.7057172 46.1989921,43.7154759 46.6420447,42.9391655 L56.2142289,26.1990621 L43.1730711,3.39271724 L17.08915,3.39271724 L4.04799211,26.1990621 L9.14470263,35.1128552 C9.58775526,35.8891655 9.32609737,36.8794069 8.55717632,37.3283379 C7.78504474,37.7740276 6.80743947,37.5082345 6.36438684,36.7335448 L0.803755263,27.0094069 C0.516413158,26.5069931 0.516413158,25.8895103 0.803755263,25.3887172 L14.7727553,0.961682759 C15.0584921,0.460889655 15.5898342,0.151337931 16.1629132,0.151337931 L44.0993079,0.151337931 C44.6739921,0.151337931 45.2037289,0.460889655 45.4894658,0.961682759 L59.4584658,25.3887172 C59.7442026,25.8895103 59.7442026,26.5069931 59.4584658,27.0094069 L49.4223605,44.5598552 C49.1253868,45.0800966 48.5860184,45.3702 48.0305974,45.3702" id="Fill-20" fill="#F7BD02" mask="url(#mask-4)"></path>
                </g>
                <path d="M112.634363,56 C112.357945,56 112.074985,55.9313579 111.818195,55.786092 C111.034739,55.3455053 110.768135,54.3685523 111.219563,53.6055073 L116.621972,44.4745086 C118.254308,41.7144567 121.296537,40 124.561209,40 L135.364393,40 C136.267248,40 137,40.7151551 137,41.5963284 C137,42.4775017 136.267248,43.1926569 135.364393,43.1926569 L124.561209,43.1926569 C122.461089,43.1926569 120.504903,44.2957198 119.454844,46.0708371 L114.052434,55.2018358 C113.749847,55.7142572 113.200283,56 112.634363,56" id="Fill-23" fill="#EB6D2F"></path>
                <path d="M92.4485002,166 L64.5514998,166 C63.9776259,166 63.4486361,165.69247 63.1616992,165.19071 L49.2140004,140.795484 C48.9286665,140.293725 48.9286665,139.677046 49.2140004,139.176905 L57.4277699,124.810396 C57.8701978,124.035097 58.8480275,123.76965 59.6190703,124.217996 C60.385304,124.664724 60.6481959,125.653676 60.2057681,126.428975 L52.4536624,139.986195 L65.4764305,162.762842 L91.5235695,162.762842 L104.546338,139.986195 L96.9881949,126.76564 C96.545767,125.991959 96.8070559,125.001388 97.5748927,124.554661 C98.3411264,124.106314 99.3205591,124.37338 99.76459,125.147061 L107.786,139.176905 C108.071333,139.677046 108.071333,140.293725 107.786,140.795484 L93.8366978,165.19071 C93.5497609,165.69247 93.0207711,166 92.4485002,166" id="Fill-25" fill="#F7BD02"></path>
                <path d="M43.768307,137 L15.665968,137 C15.0878701,137 14.5549866,136.693666 14.2659377,136.193858 L0.215575605,111.893516 C-0.071858535,111.395321 -0.071858535,110.781041 0.215575605,110.281233 L13.2098594,87.8076086 C13.6555438,87.036937 14.6389561,86.7692978 15.4156742,87.2175127 C16.1875479,87.6625031 16.4523749,88.6476085 16.0083053,89.4198924 L3.47908345,111.087375 L16.5977068,133.775432 L42.8365682,133.775432 L53.9867521,114.49413 C54.4324365,113.721846 55.4174636,113.457432 56.1925669,113.902422 C56.9644406,114.349025 57.2292676,115.33413 56.7835832,116.106414 L45.1667225,136.193858 C44.8776736,136.693666 44.3447901,137 43.768307,137" id="Fill-27" fill="#F7BD02"></path>
                <path d="M11.6255171,73 C11.0708905,73 10.5322937,72.7113007 10.2357448,72.1935773 L0.213996074,54.7280743 C-0.0713320247,54.2280922 -0.0713320247,53.6135981 0.213996074,53.1152288 L14.1630136,28.8064227 C14.4483417,28.3080535 14.9773207,28 15.5511829,28 L43.4476149,28 C44.0198741,28 44.5504561,28.3080535 44.8357842,28.8064227 L58.7848017,53.1152288 C59.0717328,53.6135981 59.0717328,54.2280922 58.7848017,54.7280743 L53.2321245,64.4051468 C52.7881027,65.1760869 51.8102929,65.4405935 51.0424718,64.997061 C50.2746507,64.5503029 50.0133671,63.5648543 50.455786,62.7923014 L55.5452057,53.9216516 L42.522703,31.2256908 L16.4760947,31.2256908 L3.45359207,53.9216516 L13.0120834,70.5807319 C13.4545022,71.3532848 13.1932186,72.3387334 12.4253975,72.7838787 C12.1721288,72.9306476 11.8964185,73 11.6255171,73" id="Fill-31" fill="#F7BD02"></path>
            </g>
            <g id="bee" transform="translate(26.000000, 55.000000)" fill="#EB6D2F" fill-rule="nonzero">
                <path d="M106,27.4691619 C106,24.2424801 104.824684,21.1304258 102.690813,18.7065489 C101.937012,17.8503474 100.628988,17.7649953 99.7691875,18.5154343 C98.9093867,19.2660796 98.8234688,20.5686274 99.5772695,21.4248288 C101.048848,23.0964112 101.859375,25.2429968 101.859375,27.4691619 C101.859375,32.5276159 97.7268242,36.642867 92.6471055,36.642867 L67.7720937,36.642867 L85.3813437,21.2854616 C86.2415586,20.5352287 86.3280977,19.2328871 85.574918,18.3762733 C84.8217383,17.5196594 83.5135078,17.4334827 82.6535,18.1835094 L69.7241914,29.4594747 C69.529375,25.6446054 67.3282187,22.349477 64.1540156,20.5987274 C63.9353906,17.2093818 62.1880469,14.2288605 59.591668,12.3348265 C60.1258086,7.71942019 64.0716172,4.12329151 68.847207,4.12329151 C69.9906406,4.12329151 70.9175195,3.2002927 70.9175195,2.06164575 C70.9175195,0.922998804 69.9906406,0 68.847207,0 C62.4203359,0 57.034418,4.50985009 55.7048633,10.517692 C54.8382305,10.3024562 53.9328828,10.1863855 53.000207,10.1863855 C52.0675312,10.1863855 51.1621836,10.3024562 50.2955508,10.517692 C48.9662031,4.50985009 43.5800781,0 37.153207,0 C36.0097734,0 35.0828945,0.922998804 35.0828945,2.06164575 C35.0828945,3.2002927 36.0097734,4.12329151 37.153207,4.12329151 C41.9287969,4.12329151 45.8746055,7.71942019 46.4087461,12.3348265 C43.8123672,14.2288605 42.0650234,17.2093818 41.8463984,20.5987274 C38.6721953,22.3496831 36.4710391,25.6448115 36.2764297,29.4594747 L22.8057344,17.7113925 C20.1886523,15.4291507 16.8318477,14.1721652 13.3531016,14.1721652 C5.99003516,14.1723714 0,20.1373311 0,27.4691619 C0,34.8009926 5.99003516,40.7661585 13.3528945,40.7661585 L14.4776953,40.7661585 C13.3555859,42.3480593 12.6935,44.275698 12.6935,46.3554863 C12.6935,51.6108275 16.9869141,55.8862684 22.2643477,55.8862684 C24.857207,55.8862684 27.3738789,54.8179236 29.1694609,52.9550205 L32.8119687,49.1758177 C32.3420078,54.4474458 33.9583008,59.8262796 37.5610586,64.0442007 L51.42325,80.2740945 C51.8166094,80.7346662 52.3931914,81 53.000207,81 C53.6074297,81 54.1838047,80.7346662 54.5771641,80.2740945 L68.4393555,64.0442007 C72.0419062,59.8262796 73.6584062,54.4474458 73.1884453,49.1758177 L76.8309531,52.9550205 C78.6263281,54.8177174 81.143207,55.8860623 83.7358594,55.8860623 C89.013293,55.8860623 93.306707,51.6106213 93.306707,46.3552801 C93.306707,44.2754919 92.6446211,42.3478531 91.5225117,40.7659523 L92.6473125,40.7659523 C100.009965,40.7661585 106,34.8011988 106,27.4691619 Z M63.2851055,40.7661585 C64.7575117,40.7661585 66.1293008,41.5308229 66.8650898,42.7618316 C68.2213516,45.0312912 68.959418,47.5347476 69.1024766,50.0542849 L36.8977305,50.0542849 C37.0407891,47.5347476 37.7788555,45.0314974 39.1351172,42.7620377 C39.8709063,41.531029 41.2426953,40.7663646 42.7148945,40.7663646 L63.2851055,40.7663646 L63.2851055,40.7661585 Z M46.2714844,19.2576268 C47.1575781,16.395444 49.8388398,14.309677 53,14.309677 C56.1611602,14.309677 58.8424219,16.395444 59.7283086,19.2576268 L46.2714844,19.2576268 Z M47.0615156,23.3809183 L58.9384844,23.3809183 C62.6101836,23.3809183 65.5972305,26.3554608 65.5972305,30.0117896 C65.5972305,33.6681183 62.6101836,36.642867 58.9384844,36.642867 L47.0615156,36.642867 C43.3898164,36.642867 40.4027695,33.6681183 40.4027695,30.0117896 C40.4027695,26.355667 43.3898164,23.3809183 47.0615156,23.3809183 Z M4.140625,27.4691619 C4.140625,22.4107078 8.27317578,18.2954567 13.3528945,18.2954567 C15.8275391,18.2954567 18.2158516,19.1895925 20.0774766,20.8131385 L38.2281133,36.6426608 L13.3528945,36.6426608 C8.27317578,36.642867 4.140625,32.5276159 4.140625,27.4691619 Z M26.182,50.0998473 C25.1634063,51.1568531 23.7353047,51.7629769 22.2643477,51.7629769 C19.2700547,51.7629769 16.834125,49.3372445 16.834125,46.3554863 C16.834125,43.273532 19.3520391,40.7661585 22.4469492,40.7661585 L35.1781289,40.7661585 L26.182,50.0998473 Z M53,75.7564102 L46.023875,67.5887882 L59.976125,67.5887882 L53,75.7564102 Z M65.2852344,61.3727201 L63.4979336,63.4652905 L42.5020664,63.4652905 L40.7147656,61.3727201 C38.9077969,59.2570592 37.7281328,56.7742192 37.1960625,54.1773703 L68.8037305,54.1773703 C68.2718672,56.7742192 67.0922031,59.2570592 65.2852344,61.3727201 Z M89.166082,46.3554863 C89.166082,49.3372445 86.7299453,51.7629769 83.7358594,51.7629769 C82.2649023,51.7629769 80.8368008,51.1568531 79.818207,50.1000535 L70.8220781,40.7661585 L83.5532578,40.7661585 C86.648168,40.7661585 89.166082,43.273532 89.166082,46.3554863 Z" id="XMLID_503_"></path>
                <path d="M93,17 C93.528,17 94.042,16.786 94.414,16.414 C94.788,16.042 95,15.526 95,15 C95,14.474 94.788,13.958 94.414,13.586 C94.042,13.214 93.528,13 93,13 C92.474,13 91.958,13.214 91.586,13.586 C91.214,13.958 91,14.474 91,15 C91,15.526 91.214,16.042 91.586,16.414 C91.958,16.786 92.474,17 93,17 Z" id="XMLID_1014_"></path>
            </g>
            <path d="M212.7,121.7 C211.299993,121.7 209.333346,120.116682 206.8,116.95 C204.266654,113.783318 203,111.350009 203,109.65 L203.004614,109.434082 C203.079968,107.540768 204.078422,102.462786 206,94.2 C204.399992,92.599992 203.6,90.600012 203.6,88.2 C203.6,86.86666 205.199984,85.53334 208.4,84.2 L209.380209,80.1722254 C212.822442,65.8569087 214.594157,56.5266775 214.695398,52.1813018 L214.7,51.8 C214.7,49.599989 215.666657,48.5 217.6,48.5 C219.200008,48.5 221.283321,50.099984 223.85,53.3 C226.41668,56.500016 227.7,59.499986 227.7,62.3 L227.690028,62.6191144 C227.570361,64.7432163 226.373696,70.6367938 224.1,80.3 C229.833362,79.299995 235.533305,78.700001 241.2,78.5 L241.668002,76.5237411 C244.505348,64.4370258 245.948889,56.2704348 245.998667,52.023751 L246,51.8 C246,49.599989 246.966657,48.5 248.9,48.5 C250.5,48.5 252.583321,50.099984 255.15,53.3 C257.716679,56.500016 259,59.499986 259,62.3 L258.995363,62.4602859 C258.9088,64.1005581 257.610357,69.7804112 255.1,79.5 C258.43335,80.300004 260.1,81.599991 260.1,83.4 C260.1,85.466677 257.633358,87.099994 252.7,88.3 L249.724997,99.7625117 C249.072221,102.297228 248.564121,104.290853 248.200695,105.743401 L246.35,113.25 L246.35,113.25 C246.074999,114.375006 245.790625,115.471874 245.496876,116.540623 L245.043367,118.164798 C244.366834,120.52161 243.719051,121.7 243.1,121.7 C241.5,121.7 239.583345,120.433346 237.35,117.9 C235.116656,115.366654 234,112.833346 234,110.3 L234.004233,110.145099 C234.090299,108.415559 235.488875,101.967252 238.2,90.8 L236.738183,91.0439136 C229.779365,92.216793 224.366686,93.3021455 220.5,94.3 L219.343996,98.7700137 C217.959328,104.169187 216.995106,108.116813 216.451313,110.612968 L216.015999,112.608005 C215.586665,114.540007 215.222668,116.055497 214.924,117.154499 L214.643367,118.164798 C213.966834,120.52161 213.319051,121.7 212.7,121.7 Z M279.7,111.6 C283.300018,109.999992 286.43332,106.766691 289.1,101.9 C291.76668,97.033309 293.1,92.466688 293.1,88.2 C293.1,83.933312 292.5,81.000008 291.3,79.4 C288.433319,81.066675 285.583348,84.56664 282.75,89.9 C279.916652,95.23336 278.5,99.9166465 278.5,103.95 C278.5,107.983353 278.899996,110.533328 279.7,111.6 Z M265.1,105 C265.1,96.666625 267.683308,88.766704 272.85,81.3 C278.016692,73.833296 283.133308,70.1 288.2,70.1 C293.266692,70.1 297.533316,71.8833155 301,75.45 C304.466684,79.0166845 306.2,83.3166415 306.2,88.35 C306.2,93.3833585 305.000012,98.499974 302.6,103.7 C300.199988,108.900026 296.833355,113.21665 292.5,116.65 C288.166645,120.08335 283.533358,121.8 278.6,121.8 C274.933315,121.8 271.76668,120.166683 269.1,116.9 C266.43332,113.633317 265.1,109.66669 265.1,105 Z M348,70.2 C351.466684,70.2 354.516654,71.7499845 357.15,74.85 C359.783346,77.9500155 361.1,81.266649 361.1,84.8 C361.1,90.466695 360.183342,96.3833025 358.35,102.55 C356.516658,108.716697 354.516678,113.46665 352.35,116.8 C350.183323,120.13335 347.983345,121.8 345.75,121.8 C343.516656,121.8 342.4,120.233349 342.4,117.1 C342.4,114.699988 343.499989,109.866703 345.7,102.6 L345.993849,101.527819 C347.464623,96.0850071 348.2,92.1424365 348.2,89.7 L348.194898,89.1627527 C348.150681,86.9209072 347.819051,85.8 347.2,85.8 C346.333329,85.8 345.483338,86.233329 344.65,87.1 C343.816663,87.966671 343.133336,88.73333 342.6,89.4 C342.125924,89.9925956 341.58601,90.7300377 340.980248,91.6123444 L340.75,91.95 C340.149997,92.8357187 339.62347,93.6479574 339.170409,94.3867337 L337.704001,96.8429979 L337.704001,96.8429979 L336.607999,98.7020021 C336.113332,99.5466694 335.692168,100.276998 335.3445,100.892999 L333.824001,103.629998 C333.688001,103.876665 333.546667,104.133332 333.4,104.4 L332.856399,105.408482 C326.914851,116.336214 322.229429,121.8 318.8,121.8 C317.399993,121.8 315.633344,120.583346 313.5,118.15 C311.366656,115.716655 310.3,113.933339 310.3,112.8 C310.3,112.130431 310.702926,110.752278 311.508789,108.665504 L312.425002,106.331246 C313.050002,104.718746 313.524998,103.425005 313.85,102.45 C314.283336,101.149993 314.649999,99.766674 314.95,98.3 C315.250001,96.833326 315.499999,95.2500085 315.7,93.55 L316.15,89.6 L316.15,89.6 L316.212,88.9759992 C316.261778,88.4408887 316.315185,87.7896323 316.372222,87.0222256 L316.631962,83.3377147 C317.165206,75.9932882 317.629828,71.8326959 318.02584,70.8558301 L318.05,70.8 C318.483336,69.866662 318.966664,69.4 319.5,69.4 C322.033346,69.4 324.466655,70.4499895 326.8,72.55 C329.133345,74.6500105 330.3,76.566658 330.3,78.3 C330.3,82.433354 329.233344,88.366628 327.1,96.1 C331.433355,88.499962 335.383316,82.2833575 338.95,77.45 C342.516684,72.6166425 345.533321,70.2 348,70.2 Z M411.4,88.9 C411.4,92.166683 409.183356,95.099987 404.75,97.7 C400.316644,100.300013 395.76669,101.6 391.1,101.6 C386.43331,101.6 382.600015,101.26667 379.6,100.6 C378.999997,102.400009 378.7,104.2 378.7,106 C378.7,107.800009 378.999997,109.08333 379.6,109.85 C380.200003,110.61667 381.699988,111 384.1,111 C389.100025,111 393.383316,110.533338 396.95,109.6 L400.645515,108.642967 C401.806841,108.347655 402.425,108.2 402.5,108.2 C405.233347,108.2 406.6,109.099991 406.6,110.9 C406.6,113.500013 404.450022,115.966655 400.15,118.3 C395.849979,120.633345 390.883361,121.8 385.25,121.8 C379.616639,121.8 375.100017,120.033351 371.7,116.5 C368.299983,112.966649 366.6,108.783357 366.6,103.95 C366.6,99.1166425 368.016653,94.066693 370.85,88.8 C373.683348,83.533307 377.233312,79.1166845 381.5,75.55 C385.766688,71.9833155 390.016646,70.2 394.25,70.2 C398.483355,70.2 402.399982,72.2833125 406,76.45 C409.600018,80.6166875 411.4,84.766646 411.4,88.9 Z M399.8,87.3 C399.8,86.63333 399.100007,85.666673 397.7,84.4 C396.299993,83.133327 394.983339,82.5 393.75,82.5 C392.516661,82.5 390.933343,83.3833245 389,85.15 C387.066657,86.9166755 385.233342,89.199986 383.5,92 C384.100003,92.066667 384.966661,92.1 386.1,92.1 L386.998115,92.0946667 C395.532746,91.9915566 399.8,90.3933488 399.8,87.3 Z M456,70.2 C457.8,70.2 459.649991,71.333322 461.55,73.6 C463.45001,75.866678 464.4,78.433319 464.4,81.3 C464.4,82.900008 463.84704,85.3908641 462.74112,88.772638 L460.253907,96.276561 L459.852343,97.5007829 C459.505989,98.5450547 459.075002,99.8041621 458.559377,101.278121 L456.704938,106.542594 C456.323045,107.63395 455.957615,108.685798 455.608643,109.698146 L453.578257,115.579081 L451.552477,121.409923 C450.523551,124.385132 449.572732,127.181805 448.7,129.8 C446.633323,135.80003 444.116682,140.433317 441.15,143.7 C438.183319,146.966683 434.333357,148.6 429.6,148.6 C424.866643,148.6 420.633352,147.350012 416.9,144.85 C413.166648,142.349987 411.3,139.833346 411.3,137.3 C411.3,135.766659 411.983327,134.066676 413.35,132.2 C414.716674,130.333324 415.883329,129.4 416.85,129.4 C417.768338,129.4 418.95741,130.106951 420.417249,131.520874 L420.65,131.75 C422.216675,133.316675 423.833325,134.883326 425.5,136.45 C427.166675,138.016674 428.633327,138.8 429.9,138.8 C430.766671,138.8 431.483331,138.400004 432.05,137.6 C432.61667,136.799996 433.083332,136.083337 433.45,135.45 C433.816669,134.816664 434.199998,133.950006 434.6,132.85 L435.7,129.8 L435.88843,129.261156 C436.180992,128.408264 436.51818,127.354552 436.9,126.1 L437.237501,124.981247 C437.562501,123.893746 437.849999,122.9 438.1,122 L438.805614,119.740811 C439.639968,117.046932 440.371425,114.600011 441,112.4 C438.799989,115.266681 436.533345,117.549992 434.2,119.25 C431.866655,120.950008 429.716677,121.8 427.75,121.8 C425.783324,121.8 423.350015,120.316682 420.45,117.35 C417.549986,114.383319 416.1,111.116685 416.1,107.55 C416.1,103.983316 416.883326,99.20003 418.45,93.2 C420.016675,87.19997 421.966655,81.86669 424.3,77.2 C426.633345,72.53331 428.699991,70.2 430.5,70.2 C432.566677,70.2 434.516658,71.0833245 436.35,72.85 C438.183342,74.6166755 439.1,76.3166585 439.1,77.95 C439.1,79.5228474 438.342714,82.0075056 436.828122,85.4040448 L436.65,85.8 C435.016659,89.400018 433.366675,93.333312 431.7,97.6 C430.033325,101.866688 429.2,105.499985 429.2,108.5 C429.2,108.900002 429.366665,109.1 429.7,109.1 C430.566671,109.1 432.399986,107.48335 435.2,104.25 C438.000014,101.01665 441.149983,96.4166965 444.65,90.45 C448.150018,84.4833035 450.833324,78.566696 452.7,72.7 C453.100002,71.033325 454.199991,70.2 456,70.2 Z M491,49.3 C500.33338,49.3 507.816639,50.533321 513.45,53 C519.083362,55.466679 521.9,59.399973 521.9,64.8 C521.9,68.200017 520.466681,71.666649 517.6,75.2 C514.733319,78.733351 510.96669,81.966652 506.3,84.9 L507.3,85.2 C511.30002,86.266672 514.649987,87.8499895 517.35,89.95 C520.050013,92.0500105 521.4,94.399987 521.4,97 C521.4,101.133354 519.11669,105.19998 514.55,109.2 C509.983311,113.20002 504.450033,116.383321 497.95,118.75 C491.449968,121.116679 485.266696,122.3 479.4,122.3 C476.866654,122.3 473.900017,120.750016 470.5,117.65 C467.099983,114.549985 465.4,112.00001 465.4,110 C465.4,108.866661 465.649998,107.96667 466.15,107.3 C466.650003,106.63333 467.23333,106.3 467.9,106.3 C468.508699,106.3 469.798195,106.758502 471.768523,107.675519 L472.35,107.95 C474.650012,109.050005 476.383328,109.6 477.55,109.6 C478.716673,109.6 479.866661,109.500001 481,109.3 C479.333325,108.63333 477.666675,107.466675 476,105.8 C474.333325,104.133325 473.5,102.533341 473.5,101 L473.504063,100.914373 C473.578547,99.9878321 474.677182,95.1664179 476.8,86.45 C479.000011,77.4166215 480.166666,69.700032 480.3,63.3 C479.099994,62.166661 478.016672,60.7833415 477.05,59.15 C476.083329,57.5166585 475.6,56.3 475.6,55.5 C475.6,53.633324 477.066652,52.133339 480,51 C482.933348,49.866661 486.599978,49.3 491,49.3 Z M557.45,70.2 C561.683355,70.2 565.599982,72.2833125 569.2,76.45 C572.800018,80.6166875 574.6,84.766646 574.6,88.9 C574.6,92.166683 572.383356,95.099987 567.95,97.7 C563.516644,100.300013 558.96669,101.6 554.3,101.6 C549.63331,101.6 545.800015,101.26667 542.8,100.6 C542.199997,102.400009 541.9,104.2 541.9,106 C541.9,107.800009 542.199997,109.08333 542.8,109.85 C543.400003,110.61667 544.899988,111 547.3,111 C552.300025,111 556.583316,110.533338 560.15,109.6 L563.845515,108.642967 C565.006841,108.347655 565.625,108.2 565.7,108.2 C568.433347,108.2 569.8,109.099991 569.8,110.9 C569.8,113.500013 567.650022,115.966655 563.35,118.3 C559.049979,120.633345 554.083362,121.8 548.45,121.8 C542.816639,121.8 538.300017,120.033351 534.9,116.5 C531.499983,112.966649 529.8,108.783357 529.8,103.95 C529.8,99.1166425 531.216653,94.066693 534.05,88.8 C536.883348,83.533307 540.433312,79.1166845 544.7,75.55 C548.966688,71.9833155 553.216646,70.2 557.45,70.2 Z M606.25,70.2 C610.483355,70.2 614.399982,72.2833125 618,76.45 C621.600018,80.6166875 623.4,84.766646 623.4,88.9 C623.4,92.166683 621.183356,95.099987 616.75,97.7 C612.316645,100.300013 607.76669,101.6 603.1,101.6 C598.43331,101.6 594.600015,101.26667 591.6,100.6 C590.999997,102.400009 590.7,104.2 590.7,106 C590.7,107.800009 590.999997,109.08333 591.6,109.85 C592.200003,110.61667 593.699988,111 596.1,111 C601.100025,111 605.383316,110.533338 608.95,109.6 L612.645515,108.642967 C613.806841,108.347655 614.425,108.2 614.5,108.2 C617.233347,108.2 618.6,109.099991 618.6,110.9 C618.6,113.500013 616.450022,115.966655 612.15,118.3 C607.849979,120.633345 602.883362,121.8 597.25,121.8 C591.616639,121.8 587.100017,120.033351 583.7,116.5 C580.299983,112.966649 578.6,108.783357 578.6,103.95 C578.6,99.1166425 580.016653,94.066693 582.85,88.8 C585.683348,83.533307 589.233312,79.1166845 593.5,75.55 C597.766688,71.9833155 602.016646,70.2 606.25,70.2 Z M489,88.6 L487.719004,93.8227012 C485.482084,102.856088 484.109093,107.881813 483.6,108.9 C489.200028,107.699994 494.799972,105.866679 500.4,103.4 C506.000028,100.933321 508.8,98.666677 508.8,96.6 C508.8,95.26666 506.883353,94.1166715 503.05,93.15 C499.216648,92.1833285 496.033346,91.7 493.5,91.7 C492.1,91.7 490.6,90.666677 489,88.6 Z M556.95,82.5 C555.716661,82.5 554.133343,83.3833245 552.2,85.15 C550.266657,86.9166755 548.433342,89.199986 546.7,92 C547.300003,92.066667 548.166661,92.1 549.3,92.1 L550.198115,92.0946667 C558.732746,91.9915566 563,90.3933488 563,87.3 C563,86.63333 562.300007,85.666673 560.9,84.4 C559.499993,83.133327 558.18334,82.5 556.95,82.5 Z M605.75,82.5 C604.516661,82.5 602.933343,83.3833245 601,85.15 C599.066657,86.9166755 597.233342,89.199986 595.5,92 C595.980002,92.0533336 596.630664,92.0853334 597.451998,92.096 L597.451998,92.096 L598.1,92.1 C607.233379,92.1 611.8,90.500016 611.8,87.3 C611.8,86.63333 611.100007,85.666673 609.7,84.4 C608.299993,83.133327 606.98334,82.5 605.75,82.5 Z M503.7,62.1 L503.407851,62.1043456 C501.195204,62.1666331 496.425963,62.8985115 489.1,64.3 C491.500012,66.96668 492.7,69.1833245 492.7,70.95 C492.7,72.7166755 492.133339,75.966643 491,80.7 L491.327439,80.4614505 C492.261075,79.7987133 493.67845,78.9231336 495.579588,77.8346961 L498.492325,76.1852771 C500.19878,75.2084232 501.317997,74.5300019 501.85,74.15 L502.220834,73.8791661 C502.743056,73.4902774 503.376386,72.9902803 504.120831,72.3791682 L504.7,71.9 C506.966678,70.1 508.1,68.0166785 508.1,65.65 C508.1,63.2833215 506.633348,62.1 503.7,62.1 Z" id="HoneyBee" fill="#5A3733" fill-rule="nonzero"></path>
        </g>
    </g>
</svg>